<?xml version="1.0" encoding="UTF-8" standalone="no"?>
<svg
   version="1.1"
   width="500"
   height="500"
   viewBox="0 0 500 500"
   xml:space="preserve"
   id="svg314"
   sodipodi:docname="icon.svg"
   inkscape:version="1.2.2 (1:1.2.2+202305151914+b0a8486541)"
   xmlns:inkscape="http://www.inkscape.org/namespaces/inkscape"
   xmlns:sodipodi="http://sodipodi.sourceforge.net/DTD/sodipodi-0.dtd"
   xmlns="http://www.w3.org/2000/svg"
   xmlns:svg="http://www.w3.org/2000/svg"><sodipodi:namedview
   id="namedview316"
   pagecolor="#ffffff"
   bordercolor="#000000"
   borderopacity="0.25"
   inkscape:showpageshadow="2"
   inkscape:pageopacity="0.0"
   inkscape:pagecheckerboard="0"
   inkscape:deskcolor="#d1d1d1"
   showgrid="false"
   inkscape:zoom="2.054"
   inkscape:cx="250.24343"
   inkscape:cy="248.05258"
   inkscape:window-width="3438"
   inkscape:window-height="1398"
   inkscape:window-x="0"
   inkscape:window-y="20"
   inkscape:window-maximized="1"
   inkscape:current-layer="svg314" />
<desc
   id="desc176">Created with Fabric.js 3.6.6</desc>
<defs
   id="defs178">
</defs>

<g
   transform="matrix(1 0 0 1 3.08 3)"
   id="g232">
<g
   style=""
   id="g230">
		<g
   transform="matrix(1 0 0 1 -1.25 -0.5)"
   id="g184">
<rect
   style="stroke: none; stroke-width: 1; stroke-dasharray: none; stroke-linecap: butt; stroke-dashoffset: 0; stroke-linejoin: miter; stroke-miterlimit: 4; fill: rgb(255,255,255); fill-rule: nonzero; opacity: 1;"
   x="-0.5"
   y="-0.5"
   rx="0"
   ry="0"
   width="1"
   height="1"
   id="rect182" />
</g>
		<g
   transform="matrix(1 0 0 1 -0.25 -1.5)"
   id="g188">
<rect
   style="stroke: none; stroke-width: 1; stroke-dasharray: none; stroke-linecap: butt; stroke-dashoffset: 0; stroke-linejoin: miter; stroke-miterlimit: 4; fill: rgb(255,255,255); fill-rule: nonzero; opacity: 1;"
   x="-0.5"
   y="-0.5"
   rx="0"
   ry="0"
   width="1"
   height="1"
   id="rect186" />
</g>
		<g
   transform="matrix(1 0 0 1 -0.25 -0.5)"
   id="g192">
<rect
   style="stroke: none; stroke-width: 1; stroke-dasharray: none; stroke-linecap: butt; stroke-dashoffset: 0; stroke-linejoin: miter; stroke-miterlimit: 4; fill: rgb(255,255,255); fill-rule: nonzero; opacity: 1;"
   x="-1"
   y="-1"
   rx="0"
   ry="0"
   width="2"
   height="2"
   id="rect190" />
</g>
		<g
   transform="matrix(1 0 0 1 0.75 0.5)"
   id="g196">
<rect
   style="stroke: none; stroke-width: 1; stroke-dasharray: none; stroke-linecap: butt; stroke-dashoffset: 0; stroke-linejoin: miter; stroke-miterlimit: 4; fill: rgb(255,255,255); fill-rule: nonzero; opacity: 1;"
   x="-1"
   y="-1"
   rx="0"
   ry="0"
   width="2"
   height="2"
   id="rect194" />
</g>
		<g
   transform="matrix(1 0 0 1 1.75 -1.5)"
   id="g200">
<rect
   style="stroke: none; stroke-width: 1; stroke-dasharray: none; stroke-linecap: butt; stroke-dashoffset: 0; stroke-linejoin: miter; stroke-miterlimit: 4; fill: rgb(255,255,255); fill-rule: nonzero; opacity: 1;"
   x="-1"
   y="-1"
   rx="0"
   ry="0"
   width="2"
   height="2"
   id="rect198" />
</g>
		<g
   transform="matrix(1 0 0 1 0.75 1.5)"
   id="g204">
<rect
   style="stroke: none; stroke-width: 1; stroke-dasharray: none; stroke-linecap: butt; stroke-dashoffset: 0; stroke-linejoin: miter; stroke-miterlimit: 4; fill: rgb(255,255,255); fill-rule: nonzero; opacity: 1;"
   x="-1"
   y="-1"
   rx="0"
   ry="0"
   width="2"
   height="2"
   id="rect202" />
</g>
		<g
   transform="matrix(1 0 0 1 1.75 0.5)"
   id="g208">
<rect
   style="stroke: none; stroke-width: 1; stroke-dasharray: none; stroke-linecap: butt; stroke-dashoffset: 0; stroke-linejoin: miter; stroke-miterlimit: 4; fill: rgb(255,255,255); fill-rule: nonzero; opacity: 1;"
   x="-0.5"
   y="-0.5"
   rx="0"
   ry="0"
   width="1"
   height="1"
   id="rect206" />
</g>
		<g
   transform="matrix(1 0 0 1 -2.25 0.5)"
   id="g212">
<rect
   style="stroke: none; stroke-width: 1; stroke-dasharray: none; stroke-linecap: butt; stroke-dashoffset: 0; stroke-linejoin: miter; stroke-miterlimit: 4; fill: rgb(255,255,255); fill-rule: nonzero; opacity: 1;"
   x="-0.5"
   y="-0.5"
   rx="0"
   ry="0"
   width="1"
   height="1"
   id="rect210" />
</g>
		<g
   transform="matrix(1 0 0 1 -0.25 1.5)"
   id="g216">
<rect
   style="stroke: none; stroke-width: 1; stroke-dasharray: none; stroke-linecap: butt; stroke-dashoffset: 0; stroke-linejoin: miter; stroke-miterlimit: 4; fill: rgb(255,255,255); fill-rule: nonzero; opacity: 1;"
   x="-0.5"
   y="-0.5"
   rx="0"
   ry="0"
   width="1"
   height="1"
   id="rect214" />
</g>
		<g
   transform="matrix(1 0 0 1 0.75 -0.5)"
   id="g220">
<rect
   style="stroke: none; stroke-width: 1; stroke-dasharray: none; stroke-linecap: butt; stroke-dashoffset: 0; stroke-linejoin: miter; stroke-miterlimit: 4; fill: rgb(255,255,255); fill-rule: nonzero; opacity: 1;"
   x="-0.5"
   y="-0.5"
   rx="0"
   ry="0"
   width="1"
   height="1"
   id="rect218" />
</g>
		<g
   transform="matrix(1 0 0 1 -1.25 1.5)"
   id="g224">
<rect
   style="stroke: none; stroke-width: 1; stroke-dasharray: none; stroke-linecap: butt; stroke-dashoffset: 0; stroke-linejoin: miter; stroke-miterlimit: 4; fill: rgb(255,255,255); fill-rule: nonzero; opacity: 1;"
   x="-0.5"
   y="-0.5"
   rx="0"
   ry="0"
   width="1"
   height="1"
   id="rect222" />
</g>
		<g
   transform="matrix(1 0 0 1 1.75 1.5)"
   id="g228">
<rect
   style="stroke: none; stroke-width: 1; stroke-dasharray: none; stroke-linecap: butt; stroke-dashoffset: 0; stroke-linejoin: miter; stroke-miterlimit: 4; fill: rgb(255,255,255); fill-rule: nonzero; opacity: 1;"
   x="-0.5"
   y="-0.5"
   rx="0"
   ry="0"
   width="1"
   height="1"
   id="rect226" />
</g>
</g>
</g>
<g
   transform="matrix(1.6076382,0,0,1.6092458,250,250)"
   id="g312">
<g
   id="g310">
		<g
   transform="translate(3.28,-1.85)"
   id="g236">
<path
   style="opacity:1;fill:#ffffff;fill-rule:nonzero;stroke:#ffffff;stroke-width:0;stroke-linecap:butt;stroke-linejoin:round;stroke-miterlimit:4;stroke-dasharray:none;stroke-dashoffset:0"
   vector-effect="non-scaling-stroke"
   transform="translate(-323.91,-204.78)"
   d="m 323.91304,114.78261 -52.17391,8.69565 -56.52174,35.21739 -23.91304,43.91305 22.60869,49.13043 57.82609,36.52174 73.47826,6.52174 56.08696,-18.69565 40,-36.95653 15.21739,-32.60869 -23.04348,-42.6087 -37.82609,-31.30434 -41.30434,-14.34783 -30.43479,-3.47826"
   stroke-linecap="round"
   id="path234" />
</g>
		<g
   transform="scale(4.41)"
   id="g308">
<g
   id="g306">
		<g
   id="g240">
<path
   style="opacity:1;fill:#ffcb57;fill-rule:nonzero;stroke:none;stroke-width:1;stroke-linecap:butt;stroke-linejoin:miter;stroke-miterlimit:4;stroke-dasharray:none;stroke-dashoffset:0"
   transform="translate(-32,-32)"
   d="M 21.286,37.383 C 21.025,36.865 20.798,36.327 20.613,35.769 L 16,35 v -6 l 4.613,-0.769 c 0.185,-0.558 0.412,-1.096 0.673,-1.614 l -2.721,-3.809 4.243,-4.243 3.809,2.721 c 0.518,-0.261 1.056,-0.488 1.614,-0.673 L 29,16 h 6 l 0.769,4.613 c 0.558,0.185 1.096,0.412 1.614,0.673 l 3.809,-2.721 4.243,4.243 -2.721,3.809 c 0.261,0.518 0.488,1.056 0.673,1.614 L 48,29 v 6 l -4.613,0.769 c -0.185,0.558 -0.412,1.096 -0.673,1.614 l 2.721,3.809 -4.243,4.243 -3.809,-2.721 c -0.518,0.261 -1.056,0.489 -1.614,0.673 L 35,48 h -6 l -0.769,-4.613 c -0.558,-0.185 -1.096,-0.412 -1.614,-0.673 l -3.809,2.721 -4.243,-4.243 z"
   stroke-linecap="round"
   id="path238" />
</g>
		<g
   id="g244">
<path
   style="opacity:1;fill:#3f3a34;fill-rule:nonzero;stroke:none;stroke-width:1;stroke-linecap:butt;stroke-linejoin:miter;stroke-miterlimit:4;stroke-dasharray:none;stroke-dashoffset:0"
   transform="translate(-32,-32)"
   d="m 32,41 c 4.962,0 9,-4.037 9,-9 0,-4.963 -4.038,-9 -9,-9 -4.962,0 -9,4.037 -9,9 0,4.963 4.038,9 9,9 z m -1,-9 c 0,-0.552 0.449,-1 1,-1 0.551,0 1,0.448 1,1 0,0.552 -0.449,1 -1,1 -0.551,0 -1,-0.448 -1,-1 z m 1,-7 c 3.86,0 7,3.141 7,7 0,3.519 -2.613,6.432 -6,6.92 v -4.104 c 1.161,-0.414 2,-1.514 2,-2.816 0,-1.654 -1.346,-3 -3,-3 -1.654,0 -3,1.346 -3,3 0,1.302 0.839,2.402 2,2.816 V 38.92 C 27.613,38.432 25,35.519 25,32 c 0,-3.859 3.14,-7 7,-7 z"
   stroke-linecap="round"
   id="path242" />
</g>
		<g
   transform="translate(1.43,5.59)"
   id="g248">
<path
   style="opacity:1;fill:#3f3a34;fill-rule:nonzero;stroke:none;stroke-width:1;stroke-linecap:butt;stroke-linejoin:miter;stroke-miterlimit:4;stroke-dasharray:none;stroke-dashoffset:0"
   transform="translate(-33.43,-37.58)"
   d="m 43.607,26.167 -1.786,0.9 c 0.248,0.491 0.456,0.989 0.617,1.478 l 0.189,0.573 4.373,0.73 v 4.305 l -4.373,0.729 -0.189,0.573 c -0.161,0.488 -0.369,0.986 -0.617,1.478 l -0.272,0.54 2.58,3.611 -3.044,3.045 -3.612,-2.58 -0.539,0.271 c -0.493,0.248 -0.991,0.456 -1.479,0.617 L 34.882,42.626 34.153,47 h -4.306 l -0.729,-4.373 -0.573,-0.189 c -0.488,-0.161 -0.986,-0.369 -1.479,-0.617 l -0.539,-0.271 -3.612,2.58 -3.644,-3.644 -1.414,1.414 4.843,4.84 4.02,-2.871 c 0.207,0.093 0.415,0.18 0.622,0.26 L 28.153,49 h 7.694 l 0.812,-4.871 c 0.207,-0.08 0.415,-0.167 0.622,-0.26 l 4.02,2.871 5.441,-5.439 -2.872,-4.021 c 0.093,-0.207 0.18,-0.414 0.26,-0.622 L 49,35.848 v -7.695 l -4.87,-0.811 c -0.152,-0.393 -0.327,-0.786 -0.523,-1.175 z"
   stroke-linecap="round"
   id="path246" />
</g>
		<g
   transform="translate(-1.43,-5.58)"
   id="g252">
<path
   style="opacity:1;fill:#3f3a34;fill-rule:nonzero;stroke:none;stroke-width:1;stroke-linecap:butt;stroke-linejoin:miter;stroke-miterlimit:4;stroke-dasharray:none;stroke-dashoffset:0"
   transform="translate(-30.57,-26.42)"
   d="m 15,28.152 v 7.695 l 4.87,0.811 c 0.152,0.393 0.327,0.786 0.523,1.175 l 1.786,-0.9 C 21.931,36.442 21.723,35.944 21.562,35.455 L 21.373,34.882 17,34.152 v -4.305 l 4.373,-0.729 0.189,-0.573 c 0.161,-0.488 0.369,-0.986 0.617,-1.478 l 0.272,-0.54 -2.58,-3.611 3.044,-3.045 3.612,2.58 0.54,-0.272 c 0.487,-0.246 0.984,-0.453 1.478,-0.616 L 29.118,21.374 29.847,17 h 4.306 l 0.729,4.373 0.573,0.189 c 0.494,0.163 0.991,0.37 1.478,0.616 l 0.54,0.272 3.612,-2.58 3.644,3.644 L 46.143,22.1 41.3,17.258 37.28,20.13 C 37.073,20.037 36.866,19.951 36.658,19.87 L 35.847,15 h -7.694 l -0.812,4.87 c -0.208,0.081 -0.416,0.167 -0.622,0.26 l -4.02,-2.872 -5.441,5.441 2.872,4.021 c -0.093,0.207 -0.18,0.414 -0.26,0.622 z"
   stroke-linecap="round"
   id="path250" />
</g>
		<g
   transform="translate(0,-12)"
   id="g256">
<rect
   style="opacity:1;fill:#3f3a34;fill-rule:nonzero;stroke:none;stroke-width:1;stroke-linecap:butt;stroke-linejoin:miter;stroke-miterlimit:4;stroke-dasharray:none;stroke-dashoffset:0"
   x="-1"
   y="-1"
   rx="0"
   ry="0"
   width="2"
   height="2"
   id="rect254" />
</g>
		<g
   transform="matrix(0.71,-0.71,0.71,0.71,-8.49,-8.49)"
   id="g260">
<rect
   style="opacity:1;fill:#3f3a34;fill-rule:nonzero;stroke:none;stroke-width:1;stroke-linecap:butt;stroke-linejoin:miter;stroke-miterlimit:4;stroke-dasharray:none;stroke-dashoffset:0"
   x="-1"
   y="-1"
   rx="0"
   ry="0"
   width="2"
   height="2"
   id="rect258" />
</g>
		<g
   transform="translate(-12)"
   id="g264">
<rect
   style="opacity:1;fill:#3f3a34;fill-rule:nonzero;stroke:none;stroke-width:1;stroke-linecap:butt;stroke-linejoin:miter;stroke-miterlimit:4;stroke-dasharray:none;stroke-dashoffset:0"
   x="-1"
   y="-1"
   rx="0"
   ry="0"
   width="2"
   height="2"
   id="rect262" />
</g>
		<g
   transform="matrix(0.71,-0.71,0.71,0.71,-8.49,8.48)"
   id="g268">
<rect
   style="opacity:1;fill:#3f3a34;fill-rule:nonzero;stroke:none;stroke-width:1;stroke-linecap:butt;stroke-linejoin:miter;stroke-miterlimit:4;stroke-dasharray:none;stroke-dashoffset:0"
   x="-1"
   y="-1"
   rx="0"
   ry="0"
   width="2"
   height="2"
   id="rect266" />
</g>
		<g
   transform="translate(0,12)"
   id="g272">
<rect
   style="opacity:1;fill:#3f3a34;fill-rule:nonzero;stroke:none;stroke-width:1;stroke-linecap:butt;stroke-linejoin:miter;stroke-miterlimit:4;stroke-dasharray:none;stroke-dashoffset:0"
   x="-1"
   y="-1"
   rx="0"
   ry="0"
   width="2"
   height="2"
   id="rect270" />
</g>
		<g
   transform="matrix(0.71,-0.71,0.71,0.71,8.48,8.49)"
   id="g276">
<rect
   style="opacity:1;fill:#3f3a34;fill-rule:nonzero;stroke:none;stroke-width:1;stroke-linecap:butt;stroke-linejoin:miter;stroke-miterlimit:4;stroke-dasharray:none;stroke-dashoffset:0"
   x="-1"
   y="-1"
   rx="0"
   ry="0"
   width="2"
   height="2"
   id="rect274" />
</g>
		<g
   transform="translate(12)"
   id="g280">
<rect
   style="opacity:1;fill:#3f3a34;fill-rule:nonzero;stroke:none;stroke-width:1;stroke-linecap:butt;stroke-linejoin:miter;stroke-miterlimit:4;stroke-dasharray:none;stroke-dashoffset:0"
   x="-1"
   y="-1"
   rx="0"
   ry="0"
   width="2"
   height="2"
   id="rect278" />
</g>
		<g
   transform="matrix(0.71,-0.71,0.71,0.71,8.48,-8.48)"
   id="g284">
<rect
   style="opacity:1;fill:#3f3a34;fill-rule:nonzero;stroke:none;stroke-width:1;stroke-linecap:butt;stroke-linejoin:miter;stroke-miterlimit:4;stroke-dasharray:none;stroke-dashoffset:0"
   x="-1"
   y="-1"
   rx="0"
   ry="0"
   width="2"
   height="2"
   id="rect282" />
</g>
		<g
   id="g288">
<path
   style="opacity:1;fill:#3f3a34;fill-rule:nonzero;stroke:none;stroke-width:1;stroke-linecap:butt;stroke-linejoin:miter;stroke-miterlimit:4;stroke-dasharray:none;stroke-dashoffset:0"
   transform="translate(-32,-32)"
   d="M 62.97,31.758 C 62.918,31.55 57.486,11 32,11 6.514,11 1.082,31.55 1.03,31.758 L 0.969,32 1.03,32.242 C 1.082,32.45 6.514,53 32,53 57.486,53 62.918,32.45 62.97,32.242 L 63.031,32 Z M 3.038,32.005 C 3.56,30.272 7.258,19.559 19.687,15.025 14.435,18.846 11,25.022 11,32 11,39.025 14.479,45.239 19.793,49.054 7.176,44.594 3.572,33.859 3.038,32.005 Z M 32,13 C 42.477,13 51,21.523 51,32 51,42.477 42.477,51 32,51 21.523,51 13,42.477 13,32 13,21.523 21.523,13 32,13 Z M 44.313,48.975 C 49.565,45.154 53,38.978 53,32 53,24.975 49.521,18.761 44.207,14.946 c 12.617,4.46 16.22,15.195 16.754,17.049 -0.521,1.734 -4.219,12.446 -16.648,16.98 z"
   stroke-linecap="round"
   id="path286" />
</g>
		<g
   transform="translate(-11.5,27)"
   id="g292">
<path
   style="opacity:1;fill:#e56565;fill-rule:nonzero;stroke:none;stroke-width:1;stroke-linecap:butt;stroke-linejoin:miter;stroke-miterlimit:4;stroke-dasharray:none;stroke-dashoffset:0"
   transform="translate(-20.5,-59)"
   d="m 31,58 c 0,0.552 -0.449,1 -1,1 H 13.816 C 13.402,57.839 12.302,57 11,57 c -1.654,0 -3,1.346 -3,3 0,1.654 1.346,3 3,3 1.302,0 2.402,-0.839 2.816,-2 H 30 c 1.654,0 3,-1.346 3,-3 v -3 h -2 z m -20,3 c -0.551,0 -1,-0.448 -1,-1 0,-0.552 0.449,-1 1,-1 0.551,0 1,0.448 1,1 0,0.552 -0.449,1 -1,1 z"
   stroke-linecap="round"
   id="path290" />
</g>
		<g
   transform="translate(-24.5,21)"
   id="g296">
<path
   style="opacity:1;fill:#e56565;fill-rule:nonzero;stroke:none;stroke-width:1;stroke-linecap:butt;stroke-linejoin:miter;stroke-miterlimit:4;stroke-dasharray:none;stroke-dashoffset:0"
   transform="translate(-7.5,-53)"
   d="m 11,54 c 1.654,0 3,-1.346 3,-3 v -1 h -2 v 1 c 0,0.552 -0.449,1 -1,1 H 6.816 C 6.402,50.839 5.302,50 4,50 c -1.654,0 -3,1.346 -3,3 0,1.654 1.346,3 3,3 1.302,0 2.402,-0.839 2.816,-2 z m -7,0 c -0.551,0 -1,-0.448 -1,-1 0,-0.552 0.449,-1 1,-1 0.551,0 1,0.448 1,1 0,0.552 -0.449,1 -1,1 z"
   stroke-linecap="round"
   id="path294" />
</g>
		<g
   transform="translate(24.5,-21)"
   id="g300">
<path
   style="opacity:1;fill:#e56565;fill-rule:nonzero;stroke:none;stroke-width:1;stroke-linecap:butt;stroke-linejoin:miter;stroke-miterlimit:4;stroke-dasharray:none;stroke-dashoffset:0"
   transform="translate(-56.5,-11)"
   d="m 60,8 c -1.302,0 -2.402,0.839 -2.816,2 H 53 c -1.654,0 -3,1.346 -3,3 v 1 h 2 v -1 c 0,-0.552 0.449,-1 1,-1 h 4.184 c 0.414,1.161 1.514,2 2.816,2 1.654,0 3,-1.346 3,-3 0,-1.654 -1.346,-3 -3,-3 z m 0,4 c -0.551,0 -1,-0.448 -1,-1 0,-0.552 0.449,-1 1,-1 0.551,0 1,0.448 1,1 0,0.552 -0.449,1 -1,1 z"
   stroke-linecap="round"
   id="path298" />
</g>
		<g
   transform="translate(11.5,-27)"
   id="g304">
<path
   style="opacity:1;fill:#e56565;fill-rule:nonzero;stroke:none;stroke-width:1;stroke-linecap:butt;stroke-linejoin:miter;stroke-miterlimit:4;stroke-dasharray:none;stroke-dashoffset:0"
   transform="translate(-43.5,-5)"
   d="M 53,7 C 54.654,7 56,5.654 56,4 56,2.346 54.654,1 53,1 51.698,1 50.598,1.839 50.184,3 H 34 c -1.654,0 -3,1.346 -3,3 v 3 h 2 V 6 C 33,5.448 33.449,5 34,5 H 50.184 C 50.598,6.161 51.698,7 53,7 Z m 0,-4 c 0.551,0 1,0.448 1,1 0,0.552 -0.449,1 -1,1 -0.551,0 -1,-0.448 -1,-1 0,-0.552 0.449,-1 1,-1 z"
   stroke-linecap="round"
   id="path302" />
</g>
</g>
</g>
</g>
</g>
</svg>
